<?xml version="1.0" standalone="no"?><!DOCTYPE svg PUBLIC "-//W3C//DTD SVG 1.1//EN" "http://www.w3.org/Graphics/SVG/1.1/DTD/svg11.dtd"><svg t="1633518664815" class="icon" viewBox="0 0 1024 1024" version="1.1" xmlns="http://www.w3.org/2000/svg" p-id="6401" xmlns:xlink="http://www.w3.org/1999/xlink" width="200" height="200"><defs><style type="text/css"></style></defs><path d="M512 512m-479.982933 0a479.982933 479.982933 0 1 0 959.965866 0 479.982933 479.982933 0 1 0-959.965866 0Z" fill="#64A5FA" p-id="6402"></path><path d="M512 991.982933A479.982933 479.982933 0 1 0 512 32.085333a479.982933 479.982933 0 0 0 0 959.965867z m0 32.017067a512 512 0 1 1 0-1024 512 512 0 0 1 0 1024z" fill="#FFFFFF" p-id="6403"></path><path d="M459.229867 223.982933h105.540266c68.061867 0 123.221333 55.159467 123.221334 123.221334v436.770133H336.008533V347.204267c0-68.061867 55.159467-123.221333 123.221334-123.221334z m-13.653334 64.034134a61.576533 61.576533 0 0 0-61.576533 61.576533v36.864c0 33.928533 27.579733 61.576533 61.576533 61.576533h132.846934a61.576533 61.576533 0 0 0 61.576533-61.6448v-36.795733a61.576533 61.576533 0 0 0-61.576533-61.576533H445.576533zM549.751467 512l-101.717334 130.6624h61.0304l-18.8416 93.320533 101.717334-130.6624h-60.962134L549.751467 512z" fill="#FFFFFF" p-id="6404"></path><path d="M321.058133 768h381.883734a17.066667 17.066667 0 1 1 0 34.133333H321.058133a17.066667 17.066667 0 1 1 0-34.133333z" fill="#FFFFFF" p-id="6405"></path></svg>